<?xml version="1.0" standalone="no"?>
<!DOCTYPE svg PUBLIC "-//W3C//DTD SVG 20010904//EN"
 "http://www.w3.org/TR/2001/REC-SVG-20010904/DTD/svg10.dtd">
<svg version="1.0" xmlns="http://www.w3.org/2000/svg"
 width="1024.000000pt" height="1024.000000pt" viewBox="0 0 1024.000000 1024.000000"
 preserveAspectRatio="xMidYMid meet">

<g transform="translate(0.000000,1024.000000) scale(0.100000,-0.100000)"
fill="#000000" stroke="none">
<path d="M3947 10134 c-2 -3 -869 -6 -1925 -7 -1056 -1 -1923 -5 -1927 -8 -7
-8 -8 -155 -7 -2814 0 -2688 -6 -6869 -10 -7030 -2 -92 1 -127 12 -150 l15
-30 260 -5 c143 -3 2400 -3 5015 0 l4755 5 0 2550 c0 1403 -1 2566 -2 2585 -1
19 0 1125 3 2457 l5 2422 -26 17 c-21 13 -39 15 -95 10 -81 -8 -5131 -10
-5691 -2 -207 3 -379 3 -382 0z m16 -375 c8 -13 1 -28 -35 -70 -25 -30 -63
-81 -84 -114 -21 -33 -48 -68 -61 -78 -13 -10 -23 -25 -23 -33 0 -8 -10 -25
-22 -38 -27 -26 -44 -50 -99 -131 -22 -33 -55 -78 -74 -100 -19 -22 -35 -45
-35 -51 0 -5 -13 -23 -30 -39 -16 -16 -30 -33 -30 -38 0 -6 -15 -28 -34 -51
-18 -23 -40 -55 -49 -71 -8 -17 -24 -39 -36 -49 -12 -11 -21 -25 -21 -33 0 -7
-4 -13 -10 -13 -5 0 -10 -5 -10 -10 0 -6 -11 -22 -25 -36 -14 -14 -25 -28 -25
-32 0 -4 -20 -32 -45 -62 -25 -30 -45 -60 -45 -66 0 -6 -15 -27 -33 -47 -19
-19 -56 -66 -82 -104 -27 -37 -52 -70 -55 -73 -4 -3 -23 -30 -44 -60 -55 -82
-105 -153 -116 -167 -5 -7 -10 -16 -10 -21 0 -5 -9 -17 -21 -28 -12 -10 -33
-39 -47 -64 -15 -25 -37 -56 -49 -70 -26 -27 -63 -79 -90 -124 -10 -16 -27
-38 -38 -50 -11 -11 -34 -39 -50 -61 -17 -22 -38 -49 -47 -59 -10 -11 -18 -23
-18 -28 0 -5 -20 -29 -45 -55 -25 -25 -45 -51 -45 -57 0 -6 -14 -27 -30 -46
-16 -19 -34 -40 -40 -47 -5 -6 -19 -28 -30 -48 -11 -20 -30 -46 -41 -58 -11
-12 -28 -34 -37 -49 -9 -16 -20 -28 -24 -28 -4 0 -8 -5 -8 -11 0 -14 -56 -95
-100 -144 -20 -22 -48 -60 -62 -85 -15 -25 -45 -65 -67 -90 -23 -25 -50 -63
-60 -85 -10 -22 -29 -53 -42 -69 -13 -16 -49 -60 -81 -97 -31 -38 -66 -85 -79
-106 -13 -21 -32 -47 -42 -58 -24 -24 -87 -121 -87 -132 0 -4 -14 -24 -31 -43
-16 -19 -37 -48 -46 -65 -17 -33 -82 -114 -126 -157 -15 -15 -27 -32 -27 -38
0 -12 -48 -76 -97 -130 -18 -19 -39 -48 -48 -65 -8 -16 -28 -46 -45 -65 -16
-19 -30 -39 -30 -44 0 -4 -27 -42 -60 -83 -33 -42 -60 -81 -60 -88 0 -7 -17
-32 -37 -56 -21 -24 -47 -61 -57 -81 -11 -21 -23 -38 -27 -38 -4 0 -22 -20
-38 -44 -17 -25 -37 -50 -44 -58 -7 -7 -26 -31 -42 -53 -17 -22 -38 -49 -47
-59 -10 -11 -18 -23 -18 -27 0 -4 -6 -14 -13 -21 -6 -7 -25 -31 -42 -53 -16
-22 -34 -45 -40 -51 -5 -6 -19 -23 -30 -38 -11 -16 -35 -47 -52 -69 -18 -23
-33 -45 -33 -49 0 -13 -39 -48 -54 -48 -8 0 -17 8 -21 18 -3 9 -5 1041 -4
2292 2 1251 2 2332 0 2402 -2 79 2 134 9 147 l11 21 1776 -2 c1632 -3 1777 -4
1786 -19z m5856 7 c17 -20 21 -3490 4 -3507 -15 -15 -70 12 -138 66 -22 18
-45 34 -51 36 -13 5 -76 54 -108 84 -12 11 -74 55 -137 98 -63 42 -124 85
-135 95 -10 9 -30 23 -44 30 -14 7 -41 27 -60 45 -19 18 -48 39 -65 47 -16 8
-37 22 -45 30 -8 8 -63 47 -122 87 -58 40 -123 88 -145 108 -31 29 -145 105
-157 105 -2 0 -20 16 -40 35 -21 19 -44 35 -52 35 -8 0 -14 4 -14 10 0 5 -30
30 -67 55 -101 68 -247 174 -258 188 -5 6 -37 30 -70 52 -33 22 -61 43 -63 48
-2 4 -10 7 -18 7 -16 0 -63 30 -134 85 -25 19 -50 35 -56 35 -6 0 -31 19 -55
43 -24 24 -62 56 -84 73 -22 16 -50 39 -63 52 -13 12 -42 32 -65 43 -23 12
-64 41 -91 65 -26 24 -52 44 -57 44 -5 0 -17 7 -26 15 -26 21 -103 79 -122 90
-9 6 -34 21 -56 34 -22 14 -42 28 -45 32 -3 3 -18 13 -35 22 -16 8 -43 29 -59
46 -17 17 -35 31 -41 31 -6 0 -31 18 -55 40 -25 22 -53 42 -62 45 -10 4 -18
10 -18 15 0 5 -8 11 -19 15 -10 3 -32 18 -49 34 -16 16 -54 45 -83 65 -96 65
-123 84 -155 110 -17 13 -42 30 -57 37 -15 7 -27 16 -27 21 0 4 -7 8 -15 8 -8
0 -34 20 -57 45 -23 25 -48 45 -55 45 -8 0 -31 11 -53 25 -22 14 -46 25 -54
25 -7 0 -24 14 -37 31 -34 44 -49 57 -140 122 -37 26 -71 47 -75 47 -5 0 -15
9 -21 20 -7 11 -27 27 -45 36 -18 9 -42 28 -53 40 -11 13 -26 24 -33 24 -22 0
-74 35 -132 90 -14 14 -66 52 -116 85 -49 33 -95 66 -102 73 -8 7 -28 20 -45
29 -18 8 -47 31 -65 49 -18 19 -39 34 -47 34 -8 0 -15 7 -15 15 0 8 -22 26
-49 39 -27 14 -55 31 -62 38 -8 8 -32 27 -54 43 -22 17 -49 38 -60 48 -11 10
-33 25 -48 34 -23 11 -107 71 -126 89 -2 2 2 10 9 19 11 13 276 15 2425 15
2015 0 2414 -2 2424 -14z m-5531 -2667 l2 -2486 -21 -27 -21 -26 -1606 4
c-884 3 -1625 5 -1647 5 -22 0 -110 -2 -196 -5 -145 -5 -156 -4 -173 15 -17
18 -17 21 0 53 9 18 20 35 23 38 11 9 61 78 61 85 0 3 11 17 25 31 14 14 25
28 25 33 0 4 8 16 18 27 15 17 99 132 142 194 8 13 21 28 28 36 6 7 12 17 12
23 0 6 4 11 8 11 4 0 15 12 24 28 9 15 25 36 35 47 11 11 46 58 78 105 33 47
68 94 77 104 10 11 18 23 18 26 0 4 9 18 21 31 12 13 35 44 52 69 17 25 34 47
37 50 3 3 39 52 80 110 41 58 77 107 80 110 4 3 19 24 34 48 27 43 39 58 89
117 15 18 27 37 27 42 0 5 15 27 33 49 18 21 44 55 57 74 25 36 37 52 56 73 6
7 48 66 93 132 46 66 87 122 92 123 5 2 9 8 9 13 0 6 11 22 25 37 14 15 25 31
25 36 0 5 8 16 18 25 11 9 30 32 43 52 37 57 142 203 149 209 4 3 31 39 60 80
29 41 59 81 67 88 7 7 13 17 13 21 0 4 8 16 18 27 10 10 33 42 52 69 19 28 38
55 43 60 4 6 31 42 60 80 28 39 55 72 59 73 4 2 8 10 8 18 0 8 3 14 8 14 4 0
23 23 42 52 19 28 52 72 73 97 20 25 37 51 37 58 0 7 4 13 8 13 4 0 15 12 24
28 9 15 25 36 36 48 11 11 30 37 43 56 37 56 142 202 154 214 6 6 28 37 50 70
22 32 48 66 58 75 9 9 17 19 17 23 0 3 7 14 15 23 43 52 165 224 165 233 0 5
3 10 8 10 4 0 18 16 31 35 13 19 31 44 41 55 10 11 28 36 41 55 13 19 27 35
32 35 4 0 7 6 7 13 0 10 38 64 80 114 5 7 10 17 10 23 0 5 4 10 8 10 4 0 15
12 24 28 10 15 28 40 43 56 14 16 25 32 25 36 0 3 8 15 18 26 10 10 33 42 52
69 19 28 40 56 47 63 7 7 13 16 13 20 0 4 11 20 25 36 14 16 25 32 25 36 0 3
8 15 18 26 9 10 30 37 46 59 17 22 33 42 36 45 4 3 33 43 65 90 33 47 62 87
65 90 3 3 35 46 70 95 84 117 92 126 110 123 13 -3 15 -285 18 -2489z m381
2426 c26 -19 53 -35 58 -35 6 0 30 -15 54 -32 24 -18 69 -49 99 -69 30 -20 75
-55 100 -79 25 -23 61 -52 80 -65 19 -12 41 -30 49 -39 7 -9 18 -16 23 -16 10
0 89 -52 110 -73 7 -8 30 -19 50 -26 20 -6 44 -23 54 -36 10 -14 26 -25 36
-25 9 0 18 -4 20 -8 4 -9 131 -110 173 -137 16 -10 41 -29 54 -41 13 -12 45
-33 70 -46 25 -13 65 -42 89 -65 24 -24 48 -43 54 -43 6 0 25 -12 43 -27 39
-34 59 -49 110 -87 22 -17 42 -33 45 -36 3 -3 25 -16 50 -27 25 -12 68 -41 94
-65 27 -23 62 -51 78 -61 16 -10 36 -23 44 -30 8 -7 20 -16 27 -22 7 -5 26
-17 42 -25 17 -8 41 -27 55 -42 27 -30 77 -67 125 -94 17 -9 34 -23 38 -30 4
-8 24 -21 43 -29 19 -8 44 -25 57 -37 29 -31 152 -118 166 -118 6 0 11 -3 11
-8 0 -4 16 -16 35 -26 20 -11 68 -48 108 -83 40 -34 76 -63 81 -63 5 0 24 -11
42 -25 18 -14 35 -25 39 -25 3 0 11 -5 18 -10 46 -39 61 -50 68 -50 4 0 14 -6
21 -12 48 -46 259 -198 274 -198 4 0 21 -15 39 -32 37 -39 99 -81 149 -102 20
-8 36 -20 36 -27 0 -16 43 -55 83 -74 18 -8 44 -26 59 -40 14 -13 50 -40 80
-59 29 -19 63 -43 75 -55 12 -12 25 -21 28 -21 5 0 101 -68 130 -92 6 -5 34
-24 63 -43 30 -18 69 -47 88 -64 18 -17 38 -31 44 -31 5 0 10 -4 10 -10 0 -5
6 -10 13 -10 8 0 27 -11 43 -25 16 -14 33 -25 37 -25 4 0 20 -12 35 -26 33
-31 107 -84 119 -84 4 0 28 -19 54 -43 25 -23 62 -51 82 -61 20 -10 65 -42 99
-70 94 -76 131 -102 155 -110 12 -4 46 -29 75 -56 29 -27 56 -50 60 -50 4 0
28 -18 53 -40 25 -22 50 -40 54 -40 5 0 24 -13 42 -30 19 -16 39 -30 46 -30 6
0 13 -4 15 -8 2 -4 23 -20 48 -34 25 -14 56 -36 69 -49 55 -51 177 -49 -2464
-49 -2400 0 -2452 0 -2469 19 -16 18 -17 125 -17 1775 0 1682 1 1796 26 1796
3 0 27 -16 54 -35z m1671 -3885 c14 2 88 3 165 2 108 -2 2432 -11 2933 -12
l92 0 0 -31 c0 -33 -26 -76 -77 -126 -18 -17 -33 -35 -33 -40 0 -4 -16 -25
-35 -45 -19 -20 -35 -43 -35 -51 0 -15 -47 -67 -61 -67 -5 0 -9 -10 -9 -22 0
-14 -29 -55 -70 -102 -38 -44 -78 -98 -90 -120 -12 -23 -44 -72 -73 -110 -29
-38 -59 -79 -67 -91 -25 -37 -54 -75 -82 -108 -16 -17 -28 -37 -28 -43 0 -7
-20 -32 -45 -57 -25 -26 -45 -49 -45 -53 0 -10 -72 -108 -82 -112 -4 -2 -8 -8
-8 -14 0 -10 -36 -60 -87 -122 -18 -22 -33 -45 -33 -51 0 -6 -15 -28 -32 -48
-58 -64 -98 -115 -98 -125 0 -5 -9 -17 -21 -28 -11 -10 -37 -46 -56 -79 -19
-33 -38 -62 -42 -65 -15 -11 -111 -140 -111 -149 0 -5 -4 -11 -8 -13 -7 -2
-23 -23 -74 -93 -4 -5 -19 -24 -33 -41 -14 -18 -25 -37 -25 -43 0 -6 -16 -28
-36 -48 -20 -21 -50 -58 -67 -83 -17 -25 -41 -56 -54 -70 -13 -14 -23 -30 -23
-37 0 -7 -4 -13 -10 -13 -5 0 -10 -6 -11 -12 0 -7 -16 -33 -35 -58 -18 -25
-46 -63 -61 -85 -15 -22 -46 -62 -68 -90 -23 -27 -52 -66 -65 -85 -13 -19 -39
-53 -57 -74 -18 -22 -33 -44 -33 -49 0 -5 -16 -27 -35 -50 -19 -22 -35 -47
-35 -54 0 -7 -4 -13 -9 -13 -5 0 -12 -8 -15 -17 -3 -10 -19 -32 -36 -50 -16
-18 -30 -36 -30 -41 0 -4 -10 -18 -22 -29 -33 -30 -57 -62 -83 -114 -13 -25
-31 -52 -41 -60 -9 -8 -36 -43 -59 -79 -23 -36 -60 -87 -83 -113 -23 -27 -42
-52 -42 -57 0 -5 -6 -15 -13 -22 -7 -7 -29 -38 -49 -68 -19 -30 -44 -65 -54
-76 -26 -30 -59 -73 -92 -121 -86 -127 -102 -153 -102 -163 0 -5 -3 -10 -8
-10 -4 0 -16 -16 -26 -35 -11 -19 -23 -35 -27 -35 -6 0 -88 -95 -172 -200 -7
-8 -20 -32 -30 -52 -10 -20 -22 -40 -28 -44 -6 -3 -30 -36 -54 -73 -24 -36
-53 -73 -64 -81 -12 -8 -21 -19 -21 -25 0 -5 -27 -44 -60 -85 -33 -41 -60 -79
-60 -84 0 -26 -46 -106 -63 -112 -26 -8 -67 -49 -67 -67 0 -7 -11 -24 -25 -37
-14 -13 -25 -29 -25 -37 0 -26 -38 -13 -48 17 -17 47 -16 4777 1 4810 12 24
16 25 144 30 72 3 135 9 139 13 5 4 20 5 34 1 14 -4 36 -6 50 -4z m-705 -26
c20 -15 20 -25 18 -511 l-2 -496 -25 -24 -25 -23 -481 0 c-514 0 -493 -2 -516
50 -17 39 -19 985 -2 1004 20 23 1003 23 1033 0z m4201 -2506 c5 -2467 5
-2562 -5 -2628 -6 -42 -8 -45 -46 -54 -22 -5 -105 -11 -185 -13 -81 -2 -155
-8 -167 -15 -16 -8 -26 -8 -35 0 -12 9 -281 23 -425 21 -65 0 -333 0 -783 0
-325 1 -999 0 -1107 -1 -115 -1 -265 0 -298 2 -61 2 -177 -10 -202 -22 -12 -6
-36 -7 -55 -3 -18 4 -71 9 -118 11 -47 3 -94 9 -105 14 -11 5 -36 11 -55 12
-30 3 -35 7 -38 31 -4 32 22 78 72 126 20 19 36 40 36 46 0 7 9 20 20 30 11
10 20 24 20 31 0 7 4 14 8 16 5 2 33 37 62 78 29 41 56 77 59 80 3 3 19 23 36
45 16 22 37 48 46 58 9 9 22 30 30 45 7 15 23 36 34 47 11 11 31 36 45 55 13
19 30 41 37 48 7 7 13 17 13 21 0 4 8 16 18 27 23 26 72 92 72 97 0 3 13 18
28 35 27 29 136 186 158 227 5 11 39 56 75 100 35 44 80 105 99 135 19 30 42
62 52 71 10 9 18 21 18 28 0 6 3 11 8 11 4 0 23 24 42 52 19 29 45 64 58 78
13 14 30 39 39 55 9 17 19 32 22 35 13 11 81 99 81 105 0 3 6 12 13 19 32 34
57 67 57 76 0 6 4 10 8 10 5 0 15 12 23 28 12 24 33 53 114 161 10 14 34 44
52 65 18 22 33 44 33 49 0 4 8 16 17 25 24 25 114 147 166 227 25 39 53 79 64
90 10 11 31 38 48 60 16 22 42 54 57 70 16 17 31 41 35 55 3 14 9 27 12 30 10
9 65 83 92 125 14 23 38 53 53 68 14 14 26 29 26 32 0 3 5 11 10 18 6 7 26 36
46 66 20 30 48 66 63 80 34 34 141 193 141 211 0 7 24 39 53 70 60 65 91 105
164 209 29 41 65 88 80 105 16 17 35 44 43 61 8 16 30 44 48 63 17 19 32 38
32 44 0 6 12 25 28 43 46 54 60 72 79 102 10 15 26 37 35 47 10 11 18 27 18
35 0 15 19 39 91 120 17 18 35 44 41 57 6 13 15 24 19 24 4 0 10 8 13 18 3 9
19 31 36 49 16 18 30 35 30 38 0 7 40 62 80 111 14 17 30 39 37 50 26 41 130
183 163 225 64 78 90 103 102 91 7 -7 11 -717 14 -2264z m-4194 1083 c18 -23
18 -77 17 -1745 -1 -1536 -3 -1723 -17 -1738 -20 -23 -43 -23 -70 2 -12 11
-28 20 -37 20 -8 0 -15 4 -15 8 0 4 -15 16 -32 27 -18 10 -35 21 -38 24 -3 3
-23 19 -45 36 -22 16 -47 37 -56 47 -9 10 -21 18 -27 18 -6 0 -30 16 -54 35
-102 83 -184 145 -194 145 -6 0 -21 11 -34 25 -13 14 -27 25 -32 25 -4 0 -34
20 -67 45 -32 25 -62 45 -66 45 -3 0 -23 16 -43 35 -20 19 -43 35 -49 35 -7 0
-13 5 -13 10 0 6 -7 10 -15 10 -8 0 -15 4 -15 9 0 5 -17 17 -38 28 -21 10 -55
38 -76 61 -21 23 -45 42 -52 42 -8 0 -14 5 -14 10 0 6 -6 10 -12 10 -7 0 -33
16 -58 35 -25 19 -70 52 -100 72 -30 20 -62 45 -71 55 -9 10 -22 18 -28 18 -7
0 -17 4 -24 10 -57 47 -76 60 -86 60 -6 0 -11 3 -11 8 0 4 -17 18 -37 32 -20
14 -57 41 -81 61 -24 21 -64 47 -88 60 -24 12 -44 26 -44 31 0 4 -6 8 -12 8
-7 0 -33 18 -56 40 -24 22 -47 40 -51 40 -4 0 -16 8 -27 19 -11 10 -40 31 -65
46 -24 16 -54 37 -65 49 -31 30 -109 86 -121 86 -5 0 -27 15 -49 34 -22 19
-58 44 -81 57 -23 13 -58 39 -77 57 -20 17 -38 32 -42 32 -3 0 -23 15 -45 33
-21 18 -63 46 -94 62 -30 16 -55 33 -55 37 0 10 -136 118 -149 118 -6 0 -11 5
-11 10 0 6 -6 10 -13 10 -7 0 -24 11 -39 25 -15 14 -31 25 -35 25 -5 0 -24 15
-44 33 -19 17 -48 39 -64 47 -17 8 -32 18 -35 21 -21 23 -146 119 -157 119 -7
0 -27 13 -45 28 -18 16 -62 47 -98 69 -36 23 -76 52 -90 66 -15 13 -80 61
-145 107 -66 46 -128 92 -137 103 -10 11 -30 26 -45 35 -16 8 -38 20 -51 27
-12 7 -30 21 -40 32 -9 10 -66 53 -127 95 -60 42 -121 86 -135 98 -14 12 -46
31 -72 42 -25 12 -52 30 -58 42 -11 20 -131 106 -147 106 -5 0 -23 16 -42 35
-18 19 -39 35 -47 35 -9 0 -30 15 -47 33 -18 18 -53 43 -79 56 -25 13 -64 40
-86 60 -49 44 -60 52 -93 69 -14 7 -39 26 -56 42 -17 16 -50 39 -72 51 -53 27
-59 38 -32 58 19 15 228 16 2427 15 l2407 0 19 -23z m-5142 -232 c30 -22 77
-59 104 -82 26 -22 61 -48 77 -56 15 -9 39 -26 53 -38 14 -12 43 -34 65 -47
21 -14 64 -45 94 -70 30 -24 67 -51 83 -59 16 -8 43 -27 59 -41 17 -14 35 -26
42 -26 7 0 16 -6 20 -13 4 -7 24 -24 43 -37 19 -14 46 -35 60 -47 14 -13 32
-23 41 -23 8 0 33 -13 55 -30 21 -16 45 -30 52 -30 22 0 105 -50 142 -84 19
-18 71 -58 115 -89 44 -31 105 -77 135 -102 30 -24 69 -51 86 -59 17 -7 40
-21 50 -29 11 -9 39 -32 64 -52 25 -20 53 -43 63 -51 9 -8 19 -14 22 -14 2 0
49 -31 104 -70 54 -38 103 -70 109 -70 5 0 22 -15 38 -34 16 -18 63 -55 104
-81 41 -26 77 -52 78 -56 2 -5 10 -9 18 -9 8 0 14 -4 14 -9 0 -5 8 -12 17 -15
10 -3 36 -21 58 -41 22 -19 52 -39 66 -45 15 -6 52 -36 83 -66 32 -30 62 -54
68 -54 5 0 35 -19 67 -43 52 -40 176 -117 187 -117 3 0 15 -10 27 -23 23 -25
152 -117 163 -117 4 0 14 -8 23 -18 9 -10 34 -31 56 -47 22 -16 58 -44 79 -62
22 -18 45 -33 52 -33 7 0 14 -4 16 -8 4 -11 123 -101 173 -132 22 -13 48 -32
57 -40 10 -9 39 -27 64 -40 26 -12 83 -55 128 -94 45 -39 95 -78 111 -86 17
-8 44 -28 60 -43 17 -15 51 -40 78 -54 26 -14 47 -30 47 -34 0 -4 16 -16 35
-25 19 -9 35 -20 35 -25 0 -5 6 -9 13 -9 6 0 28 -15 47 -34 20 -18 45 -36 55
-40 11 -4 40 -25 65 -47 25 -22 69 -56 98 -75 28 -18 52 -37 52 -42 0 -21 122
-134 167 -155 43 -20 112 -67 149 -102 6 -5 27 -21 47 -35 20 -14 37 -28 37
-32 0 -5 5 -8 10 -8 11 0 148 -95 216 -149 6 -5 25 -16 42 -25 43 -22 102 -75
102 -91 0 -13 -98 -26 -170 -23 -14 0 -38 -1 -55 -2 -28 -3 -990 -2 -1367 1
-90 1 -181 1 -203 1 -34 -1 -228 0 -330 1 -16 0 -61 -1 -100 -3 -59 -2 -479
-2 -2152 0 -90 0 -214 0 -275 -1 -62 0 -137 2 -166 6 -35 5 -57 3 -67 -5 -21
-17 -51 3 -65 44 -8 24 -10 513 -9 1777 1 959 3 1747 6 1752 11 19 63 4 113
-34z"/>
</g>
</svg>
